<svg viewBox="0 0 96 96" xmlns="http://www.w3.org/2000/svg" xmlns:xlink="http://www.w3.org/1999/xlink" id="Icons_Images" overflow="hidden"><path d="M72 71.6 58.31 49.78C58.0651 49.3801 57.6289 49.1374 57.16 49.14 56.689 49.1398 56.251 49.3815 56 49.78L52 56.2 60.58 70.08C61.3061 71.178 61.4622 72.5574 61 73.79L70.7 73.79C71.4943 73.8297 72.1704 73.2179 72.21 72.4236 72.2245 72.1342 72.1513 71.8472 72 71.6Z"/><path d="M57.1 71.73 35.35 36.34C35.0709 35.9795 34.6357 35.7749 34.18 35.79L34 35.79 33.82 35.79C33.3643 35.7749 32.9291 35.9795 32.65 36.34L10.9 71.73C10.5919 72.1611 10.5495 72.7279 10.79 73.2 11.0326 73.6278 11.5135 73.8623 12 73.79L56 73.79C56.4865 73.8623 56.9674 73.6278 57.21 73.2 57.4505 72.7279 57.4081 72.1611 57.1 71.73ZM37.64 52.92 34.18 56 30.72 52.92 25 56.38 34 41.79 42.76 56Z"/><circle cx="21" cy="38" r="3"/><path d="M93 13 13 13 13 24 2 24 2 85.79 82 85.79 82 74.79 93 74.79ZM76 80 8 80 8 29.79 76 29.79ZM87 69 82 69 82 24 19 24 19 19 87 19Z"/></svg>