<svg viewBox="0 0 96 96" xmlns="http://www.w3.org/2000/svg" xmlns:xlink="http://www.w3.org/1999/xlink" id="Icons_Lightbulb" overflow="hidden"><path d="M38 64 58 64C59.7 64 61 65.3 61 67 61 68.7 59.7 70 58 70L38 70C36.3 70 35 68.7 35 67 35 65.3 36.3 64 38 64Z"/><path d="M38 74 58 74C59.7 74 61 75.3 61 77 61 78.7 59.7 80 58 80L38 80C36.3 80 35 78.7 35 77 35 75.3 36.3 74 38 74Z"/><path d="M41.5 84C41.8 87.4 44.6 90 48 90 51.4 90 54.2 87.4 54.5 84L41.5 84Z"/><path d="M48 6C48 6 48 6 48 6 48 6 48 6 48 6 33.8 6.1 22.3 17.5 22 31.7L22 32.6C22.1 35.7 22.7 38.7 23.8 41.6 24.9 44.3 26.4 46.8 28.3 49 30.7 51.6 33.3 56.7 34.4 58.9 34.7 59.6 35.4 60 36.2 60L59.8 60C60.6 60 61.3 59.6 61.6 58.9 62.7 56.7 65.3 51.6 67.7 49 69.6 46.8 71.2 44.3 72.2 41.6 73.3 38.7 73.9 35.7 74 32.6L74 31.7C73.7 17.5 62.2 6.1 48 6ZM68 32.5C67.9 34.9 67.4 37.3 66.6 39.5 65.8 41.5 64.7 43.4 63.2 45 60.9 47.8 58.9 50.8 57.4 54L48 54 38.7 54C37.1 50.8 35.1 47.8 32.9 45 31.5 43.4 30.3 41.5 29.5 39.5 28.6 37.3 28.2 34.9 28.1 32.5L28.1 31.7C28.3 20.8 37.2 12 48.1 11.9L48.1 11.9 48.1 11.9C48.1 11.9 48.1 11.9 48.1 11.9 48.1 11.9 48.1 11.9 48.1 11.9L48.1 11.9 48.1 11.9C59 12 67.9 20.7 68.1 31.7L68.1 32.5Z"/></svg>