<svg viewBox="0 0 96 96" xmlns="http://www.w3.org/2000/svg" xmlns:xlink="http://www.w3.org/1999/xlink" id="Icons_ZoomIn" overflow="hidden"><path d="M85 76.55 72.5 64.05C70.8682 62.4194 68.5378 61.6975 66.27 62.12L61.8 57.7C65.8316 52.4908 68.0131 46.0871 68 39.5 68.0543 22.8763 54.6221 9.35618 37.9984 9.30192 21.3747 9.24766 7.85458 22.6798 7.80032 39.3035 7.74607 55.9272 21.1782 69.4473 37.8019 69.5016 44.4513 69.5233 50.9207 67.3426 56.2 63.3L60.62 67.72C60.18 70.004 60.9033 72.3573 62.55 74L75.05 86.5C77.7838 89.2338 82.2162 89.2338 84.95 86.5 87.6838 83.7662 87.6838 79.3338 84.95 76.6ZM38 64.5C24.1929 64.5 13 53.3071 13 39.5 13 25.6929 24.1929 14.5 38 14.5 51.8071 14.5 63 25.6929 63 39.5 63 53.3071 51.8071 64.5 38 64.5Z"/><path d="M52.5 35.79 41.5 35.79 41.5 24.79 35.5 24.79 35.5 35.79 24.5 35.79 24.5 41.79 35.5 41.79 35.5 52.79 41.5 52.79 41.5 41.79 52.5 41.79 52.5 35.79Z"/></svg>